<?xml version="1.0" encoding="UTF-8"?>
<svg xmlns="http://www.w3.org/2000/svg" xmlns:xlink="http://www.w3.org/1999/xlink" viewBox="0 0 120 120" width="120px" height="120px">
<g id="surface272835815">
<path style=" stroke:none;fill-rule:nonzero;fill:rgb(59.215689%,59.215689%,59.215689%);fill-opacity:1;" d="M 96 16 L 24 16 C 19.578125 16 16 19.578125 16 24 L 16 96 C 16 100.421875 19.578125 104 24 104 L 64 104 L 64 68 L 52 68 L 52 56 L 64 56 L 64 49.554688 C 64 37.355469 69.945312 32 80.085938 32 C 84.941406 32 87.507812 32.359375 88.722656 32.523438 L 88.722656 44 L 81.808594 44 C 77.503906 44 76 46.273438 76 50.871094 L 76 56 L 88.617188 56 L 86.902344 68 L 76 68 L 76 104 L 96 104 C 100.421875 104 104 100.421875 104 96 L 104 24 C 104 19.578125 100.414062 16 96 16 Z M 96 16 "/>
</g>
</svg>
